<svg xmlns="http://www.w3.org/2000/svg" width="18.402" height="18.402" viewBox="0 0 18.402 18.402">
  <path id="browser_tab" d="M15.28,2.622A8.951,8.951,0,0,0,2.622,15.28,8.951,8.951,0,0,0,15.28,2.622ZM8.951,1.049a7.85,7.85,0,0,1,5.587,2.314A7.95,7.95,0,0,1,15.757,4.93H8.951A4.028,4.028,0,0,0,5.023,8.091l-2.307-4a8.026,8.026,0,0,1,.648-.732A7.85,7.85,0,0,1,8.951,1.049Zm2.972,7.9A2.972,2.972,0,1,1,8.951,5.979,2.975,2.975,0,0,1,11.923,8.951Zm-10.874,0A7.857,7.857,0,0,1,2.065,5.067l3.378,5.851.015.023a4.02,4.02,0,0,0,4.712,1.842l-2.307,4A7.9,7.9,0,0,1,1.049,8.951Zm13.489,5.587a7.849,7.849,0,0,1-5.506,2.313L12.41,11l.011-.021a4.014,4.014,0,0,0-.764-5h4.62a7.918,7.918,0,0,1-1.738,8.559Z" transform="translate(0.25 0.25)" fill="#cbd4f1" stroke="#cbd4f1" stroke-width="0.5"/>
</svg>
