<svg xmlns="http://www.w3.org/2000/svg" width="15.768" height="15.768" viewBox="0 0 15.768 15.768">
  <g id="call_btn" transform="translate(-0.007)">
    <path id="Path_20" data-name="Path 20" d="M2.036,81.656l1.991,1.991a6.96,6.96,0,0,0,8.957.741,1.39,1.39,0,0,0,.16-2.107l-1.9-1.9a1.388,1.388,0,0,0-1.96,0l-.653.653a1.385,1.385,0,0,1-1.96,0L4.649,79.012a1.385,1.385,0,0,1,0-1.96h0L5.3,76.4a1.387,1.387,0,0,0,0-1.96l-1.9-1.9A1.39,1.39,0,0,0,1.3,72.7a6.975,6.975,0,0,0,.741,8.957Zm8.555-.622,1.9,1.9a.466.466,0,0,1-.045.7q-.165.118-.336.223l-2.5-2.5.327-.327a.463.463,0,0,1,.653,0Zm-4.573.653a2.309,2.309,0,0,0,2.907.294L11.243,84.3A6.094,6.094,0,0,1,4.68,82.994L2.689,81A6.094,6.094,0,0,1,1.384,74.44L3.7,76.758A2.309,2.309,0,0,0,4,79.666Zm-3.269-8.5,1.9,1.9a.462.462,0,0,1,0,.653l-.327.327-2.5-2.5q.105-.171.223-.336a.466.466,0,0,1,.7-.045Z" transform="translate(0 -69.908)" fill="#3d4a5a"/>
    <path id="Path_21" data-name="Path 21" d="M287.452.924A5.55,5.55,0,0,1,293,6.467a.462.462,0,0,0,.924,0A6.475,6.475,0,0,0,287.452,0a.462.462,0,1,0,0,.924Z" transform="translate(-278.145)" fill="#3d4a5a"/>
    <path id="Path_22" data-name="Path 22" d="M287.453,180.923h0a.462.462,0,1,0,.924,0,.925.925,0,0,0-.924-.924.462.462,0,1,0,0,.923Z" transform="translate(-278.146 -174.456)" fill="#3d4a5a"/>
    <path id="Path_23" data-name="Path 23" d="M287.452,120.924a1.85,1.85,0,0,1,1.848,1.848.462.462,0,1,0,.924,0A2.775,2.775,0,0,0,287.452,120a.462.462,0,1,0,0,.924Z" transform="translate(-278.145 -116.304)" fill="#3d4a5a"/>
    <path id="Path_24" data-name="Path 24" d="M287.452,60.924a3.7,3.7,0,0,1,3.7,3.7.462.462,0,0,0,.924,0,4.625,4.625,0,0,0-4.62-4.62.462.462,0,1,0,0,.924Z" transform="translate(-278.145 -58.152)" fill="#3d4a5a"/>
  </g>
</svg>
