<svg xmlns="http://www.w3.org/2000/svg" width="18.895" height="17.901" viewBox="0 0 18.895 17.901">
  <g id="chat_tab" fill="none">
    <path d="M5.967,0h6.961a5.751,5.751,0,0,1,5.967,5.507V9.179a5.751,5.751,0,0,1-5.967,5.507h-3.7V17.9C5.937,17.9,0,12.22,0,9.179V5.507A5.751,5.751,0,0,1,5.967,0Z" stroke="none"/>
    <path d="M 5.966731071472168 1.999999046325684 C 3.779471397399902 1.999999046325684 2.000001907348633 3.573328971862793 2.000001907348633 5.507209777832031 L 2.000001907348633 9.178679466247559 C 2.000001907348633 9.773798942565918 2.855522155761719 11.42427921295166 4.757501602172852 13.23036003112793 C 5.624287605285645 14.05343914031982 6.481365203857422 14.69239139556885 7.232161521911621 15.13866806030273 L 7.232161521911621 14.68587970733643 L 7.232161521911621 12.68587875366211 L 9.232161521911621 12.68587875366211 L 12.92793083190918 12.68587875366211 C 15.11519145965576 12.68587875366211 16.89466094970703 11.11255931854248 16.89466094970703 9.178679466247559 L 16.89466094970703 5.507209777832031 C 16.89466094970703 3.573328971862793 15.11519145965576 1.999999046325684 12.92793083190918 1.999999046325684 L 5.966731071472168 1.999999046325684 M 5.966731071472168 0 L 12.92793083190918 0 C 16.2232608795166 0 18.89466094970703 2.465659141540527 18.89466094970703 5.507209777832031 L 18.89466094970703 9.178679466247559 C 18.89466094970703 12.22021961212158 16.2232608795166 14.68587970733643 12.92793083190918 14.68587970733643 L 9.232161521911621 14.68587970733643 L 9.232161521911621 17.90149879455566 C 5.936820983886719 17.90149879455566 1.9073486328125e-06 12.22021961212158 1.9073486328125e-06 9.178679466247559 L 1.9073486328125e-06 5.507209777832031 C 1.9073486328125e-06 2.465659141540527 2.671401977539063 0 5.966731071472168 0 Z" stroke="none" fill="#cbd4f1"/>
  </g>
</svg>
