<svg height="511pt" viewBox="-2 0 511 511.99991" width="511pt" xmlns="http://www.w3.org/2000/svg"><path d="m436.550781 246.859375-17.933593 29.777344-59.566407-35.933594 17.953125-29.777344zm-214.171875 175.640625v-175.226562h69.546875v59.882812zm19.949219-244.773438h29.648437l15.453126 46.367188h-60.554688zm14.824219-81.136718c-6.402344 0-11.589844-5.191406-11.589844-11.589844 0-6.402344 5.1875-11.59375 11.589844-11.59375s11.589844 5.191406 11.589844 11.59375c0 6.398438-5.1875 11.589844-11.589844 11.589844zm0-96.589844 55.972656 74.625-39.953125 79.921875h-4.429687v-36.90625c18.109374-6.402344 27.597656-26.269531 21.195312-44.378906-6.402344-18.105469-26.269531-27.59375-44.375-21.191407-18.109375 6.402344-27.597656 26.269532-21.195312 44.375 3.5 9.902344 11.292968 17.691407 21.195312 21.195313v36.90625h-4.429688l-39.953124-79.921875zm-161.894532 179.363281-3.40625 2.246094-42.691406 28.121094-3.929687-32.847657c-.214844-1.785156-.84375-3.496093-1.832031-4.996093l-12.75-19.359375 19.359374-12.75 12.75 19.359375c.988282 1.496093 2.316407 2.746093 3.871094 3.648437zm-72.15625-80.457031 14.140626 21.480469-19.355469 12.75-17.386719-26.3125zm61.863282 114.972656 28.976562-19.136718 85.253906 129.324218v126.425782l-143.265624-217.460938zm201.964844 281.132813c-9.828126 16.503906-31.167969 21.914062-47.667969 12.085937-16.5-9.824218-21.910157-31.167968-12.085938-47.667968.070313-.117188.140625-.234376.210938-.347657l87.523437-145.15625h.199219v-.3125l31.96875-53.03125 29.777344 17.988281 29.824219 17.921876zm209.894531-303.199219c-5.980469 9.878906-14.164063 18.238281-23.914063 24.433594l-20.585937 13.039062-67.226563-40.476562 1.910156-24.339844c2.125-26.613281 18.332032-50.054688 42.484376-61.433594l74.183593-34.925781 1.46875 32.304687c-1.160156-.128906-2.332031-.078124-3.476562.152344l-28.074219 6.953125c-26.125 6.382813-46.355469 27.058594-52.160156 53.320313-1.394532 6.242187 2.53125 12.4375 8.773437 13.839844.835938.191406 1.6875.289062 2.539063.289062 5.425781-.003906 10.121094-3.769531 11.300781-9.0625 3.917969-17.660156 17.519531-31.5625 35.089844-35.863281l27.074219-6.714844 1.21875 26.660156c.679687 14.683594-3.011719 29.238281-10.605469 41.824219zm0 0"/></svg>