<svg xmlns="http://www.w3.org/2000/svg" width="14.176" height="18.801" viewBox="0 0 14.176 18.801">
  <g id="notification_tab" transform="translate(-238.85 -758.85)">
    <path id="Path_59" data-name="Path 59" d="M77.3,12.72a1.158,1.158,0,0,1-1.156-1.156V7.516a5.211,5.211,0,0,0-3.669-4.974,1.734,1.734,0,1,0-3.067,0,5.262,5.262,0,0,0-3.671,5.02v4a1.158,1.158,0,0,1-1.156,1.156A.578.578,0,0,0,64,13.3V15.61a.578.578,0,0,0,.578.578h4.357a2.051,2.051,0,0,0-.021.289,2.024,2.024,0,1,0,4.026-.289H77.3a.578.578,0,0,0,.578-.578V13.3A.578.578,0,0,0,77.3,12.72ZM70.938,1.156a.578.578,0,1,1-.578.578A.579.579,0,0,1,70.938,1.156Zm.867,15.321a.867.867,0,1,1-1.685-.289h1.636A.864.864,0,0,1,71.805,16.478Zm4.914-1.445H65.156V13.8a2.317,2.317,0,0,0,1.734-2.239v-4a4.08,4.08,0,0,1,4.033-4.1h.015a4.047,4.047,0,0,1,4.047,4.047v4.047A2.317,2.317,0,0,0,76.72,13.8Z" transform="translate(175 759)" fill="#cbd4f1" stroke="#cbd4f1" stroke-width="0.3"/>
    <path id="Path_60" data-name="Path 60" d="M176.578,131.469a.578.578,0,0,1-.578-.578A2.894,2.894,0,0,1,178.891,128a.578.578,0,0,1,0,1.156,1.736,1.736,0,0,0-1.734,1.734A.578.578,0,0,1,176.578,131.469Z" transform="translate(67.047 635.625)" fill="#cbd4f1" stroke="#cbd4f1" stroke-width="0.5"/>
  </g>
</svg>
