<svg xmlns="http://www.w3.org/2000/svg" width="15.519" height="20.692" viewBox="0 0 15.519 20.692">
  <g id="notification_tab" transform="translate(-64)">
    <path id="Path_56" data-name="Path 56" d="M78.872,14.226a1.3,1.3,0,0,1-1.293-1.293V8.406a5.828,5.828,0,0,0-4.1-5.564,1.94,1.94,0,1,0-3.43,0A5.885,5.885,0,0,0,65.94,8.462v4.47a1.3,1.3,0,0,1-1.293,1.293.647.647,0,0,0-.647.647v2.586a.647.647,0,0,0,.647.647H69.52a2.294,2.294,0,0,0-.023.323,2.263,2.263,0,1,0,4.5-.323h4.873a.647.647,0,0,0,.647-.647V14.872A.647.647,0,0,0,78.872,14.226ZM71.759,1.293a.647.647,0,1,1-.647.647A.647.647,0,0,1,71.759,1.293Zm.97,17.136a.97.97,0,1,1-1.885-.323h1.83A.967.967,0,0,1,72.729,18.429Zm5.5-1.617H65.293V15.437a2.591,2.591,0,0,0,1.94-2.5V8.462a4.563,4.563,0,0,1,4.51-4.583h.016a4.526,4.526,0,0,1,4.526,4.526v4.526a2.591,2.591,0,0,0,1.94,2.5Z" fill="#cbd4f1"/>
    <path id="Path_57" data-name="Path 57" d="M176.647,131.88a.647.647,0,0,1-.647-.647A3.237,3.237,0,0,1,179.233,128a.647.647,0,1,1,0,1.293,1.942,1.942,0,0,0-1.94,1.94A.647.647,0,0,1,176.647,131.88Z" transform="translate(-107.474 -122.827)" fill="#cbd4f1"/>
  </g>
</svg>
