<svg xmlns="http://www.w3.org/2000/svg" width="24.046" height="14.553" viewBox="0 0 24.046 14.553">
  <g id="send_image_btn" transform="translate(0 -100.838)">
    <path id="Path_12" data-name="Path 12" d="M425.117,235.168l-.583-3.207a.353.353,0,1,0-.695.126l.583,3.208a1.177,1.177,0,0,1-.946,1.37l-2.273.426a.353.353,0,0,0,.065.7c.022,0,2.337-.431,2.337-.431a1.883,1.883,0,0,0,1.512-2.191Z" transform="translate(-401.103 -124.675)"/>
    <path id="Path_13" data-name="Path 13" d="M120.783,112.713l-7.824,1.436a1.178,1.178,0,0,1-1.37-.945l-1.185-6.459a1.178,1.178,0,0,1,.945-1.37l11.762-2.159a1.177,1.177,0,0,1,1.37.945l.3,1.637a.353.353,0,1,0,.694-.127l-.3-1.637a1.883,1.883,0,0,0-2.192-1.512l-.033.006-.053-.291a1.705,1.705,0,0,0-1.985-1.369L108.8,103.089a1.707,1.707,0,0,0-1.369,1.985l1.249,6.809a1.7,1.7,0,0,0,1.985,1.369l.208-.038.021.117a1.882,1.882,0,0,0,2.192,1.512l7.824-1.436a.353.353,0,0,0-.127-.694Zm-10.245-.155a1,1,0,0,1-1.163-.8l-1.249-6.809a1,1,0,0,1,.8-1.163l12.112-2.222a1,1,0,0,1,1.163.8l.053.291-11.035,2.025a1.885,1.885,0,0,0-1.512,2.192l1.036,5.648Z" transform="translate(-102.347)" fill="#3d4a5a"/>
    <path id="Path_14" data-name="Path 14" d="M267.014,204.326a3.12,3.12,0,1,0,3.12-3.12A3.123,3.123,0,0,0,267.014,204.326Zm5.533,0a2.413,2.413,0,1,1-2.413-2.414A2.416,2.416,0,0,1,272.547,204.326Z" transform="translate(-254.446 -95.644)"/>
    <path id="Path_15" data-name="Path 15" d="M.437,290.178l2.129-.52a.353.353,0,1,0-.168-.686l-2.129.52a.353.353,0,1,0,.168.686Z" transform="translate(0 -179.268)"/>
    <path id="Path_16" data-name="Path 16" d="M61.026,369.711l-2.129.52a.353.353,0,1,0,.168.686l2.129-.52a.353.353,0,0,0-.168-.686Z" transform="translate(-55.868 -256.207)"/>
    <path id="Path_17" data-name="Path 17" d="M15.638,324.147,12.326,325a.353.353,0,1,0,.176.684l3.312-.852a.353.353,0,0,0-.176-.684Z" transform="translate(-11.493 -212.787)"/>
    <path id="Path_18" data-name="Path 18" d="M81.762,279.483a.351.351,0,0,0,.082-.01l.447-.106a.353.353,0,1,0-.162-.687l-.447.106a.353.353,0,0,0,.081.7Z" transform="translate(-77.577 -169.462)"/>
    <path id="Path_19" data-name="Path 19" d="M6.273,390.992l-.8.189a.353.353,0,1,0,.162.687l.8-.189a.353.353,0,0,0-.162-.687Z" transform="translate(-4.952 -276.487)"/>
  </g>
</svg>
