<svg xmlns="http://www.w3.org/2000/svg" width="18.966" height="17.395" viewBox="0 0 18.966 17.395">
  <g id="send_image_btn" transform="translate(-45.519 -189.181)">
    <g id="Group_81" data-name="Group 81" transform="translate(45.519 189.181)">
      <g id="Group_80" data-name="Group 80" transform="translate(0 0)">
        <path id="Path_49" data-name="Path 49" d="M61.377,193.379l-10.279-4.2-3.123,7.644-.208.514.517.212.208-.517,2.91-7.123,8.5,3.469H51.589v11.344l-5.344-2.185,1.239-3.037-.257-.1.257.1.164-.4-.514-.212-.164.4-1.452,3.551,6.07,2.482v1.25h12.9v-9h-.558v8.445H52.147V193.937H63.927V195.9h.558v-2.52Z" transform="translate(-45.519 -189.181)" fill="#3d4a5a"/>
        <path id="Path_50" data-name="Path 50" d="M536.392,383.208h.558v.558h-.558Z" transform="translate(-517.984 -375.932)" fill="#3d4a5a"/>
        <path id="Path_51" data-name="Path 51" d="M0,0H.558V.558H0Z" transform="translate(2.549 8.89) rotate(112.206)" fill="#3d4a5a"/>
        <path id="Path_52" data-name="Path 52" d="M252.25,360.487h9.531v-9.535H252.25Zm3.8-.558,2.52-4.567.659,1.329h-1.165v.558h1.44l1.332,2.683H256.05Zm5.173-8.419v7.938l-2.631-5.292-3.182,5.772h-2.04l2.523-4.578.577,1.12.495-.257-1.057-2.054-3.1,5.638V351.51Z" transform="translate(-244.498 -344.886)" fill="#3d4a5a"/>
        <path id="Path_53" data-name="Path 53" d="M423.132,378.7a1.072,1.072,0,1,0-1.072-1.072A1.072,1.072,0,0,0,423.132,378.7Zm0-1.585a.514.514,0,1,1-.514.514A.515.515,0,0,1,423.132,377.116Z" transform="translate(-407.94 -369.531)" fill="#3d4a5a"/>
      </g>
    </g>
  </g>
</svg>
